#N canvas 631 212 840 773 10;
#X obj 320 581 dac~;
#X obj 32 377 *~ 0;
#X msg 53 340 0;
#X msg 85 341 1;
#X obj 32 54 bng 15 250 50 0 empty empty empty 17 7 0 10 -262144 -1
-1;
#X floatatom 32 117 5 0 0 0 - - -;
#X msg 12 203 440;
#X obj 32 309 osc~;
#X floatatom 33 247 5 0 0 0 - - -;
#X obj 39 281 /~ 2;
#X obj 34 -6 tgl 15 0 empty empty empty 17 7 0 10 -262144 -1 -1 1 1
;
#X obj 35 18 metro 500;
#X msg 42 202 554.37;
#X msg 90 202 659;
#X obj 220 376 *~ 0;
#X msg 241 339 0;
#X msg 273 340 1;
#X obj 231 53 bng 15 250 50 0 empty empty empty 17 7 0 10 -262144 -1
-1;
#X floatatom 231 116 5 0 0 0 - - -;
#X msg 251 202 440;
#X obj 220 308 osc~;
#X floatatom 232 246 5 0 0 0 - - -;
#X obj 233 -7 tgl 15 0 empty empty empty 17 7 0 10 -262144 -1 -1 1
1;
#X msg 280 202 554.37;
#X msg 338 201 659;
#X obj 370 375 *~ 0;
#X msg 391 338 0;
#X msg 423 339 1;
#X obj 370 52 bng 15 250 50 0 empty empty empty 17 7 0 10 -262144 -1
-1;
#X floatatom 370 115 5 0 0 0 - - -;
#X obj 370 154 route 1 2;
#X msg 373 201 440;
#X obj 370 307 osc~;
#X floatatom 371 245 5 0 0 0 - - -;
#X obj 372 -8 tgl 15 0 empty empty empty 17 7 0 10 -262144 -1 -1 1
1;
#X obj 373 16 metro 500;
#X msg 419 201 554.37;
#X msg 477 200 659;
#X obj 370 81 expr random(1 \, 4);
#X msg 123 202 830.6;
#X msg 167 203 987.8;
#X obj 32 156 route 1 2 3 4;
#X obj 32 83 expr random(1 \, 6);
#X obj 227 280 /~ 4;
#X obj 377 279 /~ 1;
#X msg 210 202 415.3;
#X obj 231 155 route 1 2 3;
#X obj 231 82 expr random(1 \, 5);
#X obj 234 17 metro 1000;
#X obj 269 -46 bng 15 250 50 0 empty empty empty 17 7 0 10 -262144
-1 -1;
#X obj 539 319 line;
#X floatatom 595 351 5 0 0 0 - - -;
#X obj 543 429 osc~;
#X obj 542 459 *~;
#X obj 586 436 tgl 15 0 empty empty empty 17 7 0 10 -262144 -1 -1 1
1;
#X obj 312 546 *~ 0.25;
#X obj 538 62 metro 5000;
#X obj 545 -23 tgl 15 0 empty empty empty 17 7 0 10 -262144 -1 -1 1
1;
#X floatatom 546 135 5 0 0 0 - - -;
#X obj 531 101 expr random(1 \, 5);
#X msg 541 282 \$1 1000;
#X msg 567 206 440;
#X msg 613 206 554.37;
#X msg 671 205 659;
#X msg 525 206 415.3;
#X msg 706 205 830.6;
#X obj 555 164 route 1 2 3 4;
#X obj 502 514 *~ 1;
#X msg 564 504 0.5;
#X obj 765 310 bng 15 250 50 0 empty empty empty 17 7 0 10 -262144
-1 -1;
#X floatatom 638 484 5 0 0 0 - - -;
#X obj 645 368 expr random(0.0 \, 100) / 100;
#X obj 739 -17 tgl 15 0 empty empty empty 17 7 0 10 -262144 -1 -1 1
1;
#X obj 741 69 metro 5000;
#X obj 646 454 line;
#X msg 668 409 \$1 1000;
#X obj 500 406 *~ 2;
#X obj 462 349 expr random(1 \, 3);
#X floatatom 453 384 5 0 0 0 - - -;
#X connect 1 0 55 0;
#X connect 2 0 1 1;
#X connect 3 0 1 1;
#X connect 4 0 42 0;
#X connect 5 0 41 0;
#X connect 6 0 8 0;
#X connect 7 0 1 0;
#X connect 8 0 9 0;
#X connect 9 0 7 0;
#X connect 10 0 11 0;
#X connect 11 0 4 0;
#X connect 12 0 8 0;
#X connect 13 0 8 0;
#X connect 14 0 55 0;
#X connect 15 0 14 1;
#X connect 16 0 14 1;
#X connect 17 0 47 0;
#X connect 18 0 46 0;
#X connect 19 0 21 0;
#X connect 20 0 14 0;
#X connect 21 0 43 0;
#X connect 22 0 48 0;
#X connect 23 0 21 0;
#X connect 24 0 21 0;
#X connect 25 0 55 0;
#X connect 26 0 25 1;
#X connect 27 0 25 1;
#X connect 28 0 38 0;
#X connect 29 0 30 0;
#X connect 30 0 31 0;
#X connect 30 1 36 0;
#X connect 30 2 37 0;
#X connect 31 0 33 0;
#X connect 32 0 25 0;
#X connect 33 0 44 0;
#X connect 34 0 35 0;
#X connect 35 0 28 0;
#X connect 36 0 33 0;
#X connect 37 0 33 0;
#X connect 38 0 29 0;
#X connect 39 0 8 0;
#X connect 40 0 8 0;
#X connect 41 0 6 0;
#X connect 41 1 12 0;
#X connect 41 2 13 0;
#X connect 41 3 39 0;
#X connect 41 4 40 0;
#X connect 42 0 5 0;
#X connect 43 0 20 0;
#X connect 44 0 32 0;
#X connect 45 0 21 0;
#X connect 46 0 45 0;
#X connect 46 1 19 0;
#X connect 46 2 23 0;
#X connect 46 3 24 0;
#X connect 47 0 18 0;
#X connect 48 0 17 0;
#X connect 49 0 10 0;
#X connect 49 0 22 0;
#X connect 49 0 34 0;
#X connect 49 0 57 0;
#X connect 49 0 72 0;
#X connect 50 0 51 0;
#X connect 51 0 76 0;
#X connect 52 0 53 0;
#X connect 53 0 67 0;
#X connect 54 0 53 1;
#X connect 55 0 0 0;
#X connect 55 0 0 1;
#X connect 56 0 59 0;
#X connect 56 0 77 0;
#X connect 57 0 56 0;
#X connect 58 0 66 0;
#X connect 59 0 58 0;
#X connect 60 0 50 0;
#X connect 61 0 60 0;
#X connect 62 0 60 0;
#X connect 63 0 60 0;
#X connect 64 0 60 0;
#X connect 65 0 60 0;
#X connect 66 0 64 0;
#X connect 66 1 61 0;
#X connect 66 2 62 0;
#X connect 66 3 63 0;
#X connect 66 4 65 0;
#X connect 67 0 55 0;
#X connect 68 0 67 1;
#X connect 69 0 71 0;
#X connect 70 0 68 0;
#X connect 71 0 75 0;
#X connect 72 0 73 0;
#X connect 73 0 69 0;
#X connect 74 0 70 0;
#X connect 75 0 74 0;
#X connect 76 0 52 0;
#X connect 77 0 76 1;
#X connect 77 0 78 0;
